<?xml version="1.0" encoding="UTF-8"?>
<svg version="1.1" xmlns="http://www.w3.org/2000/svg" width="512" height="512">
<path d="M0 0 C168.96 0 337.92 0 512 0 C512 168.96 512 337.92 512 512 C343.04 512 174.08 512 0 512 C0 343.04 0 174.08 0 0 Z " fill="#000000" transform="translate(0,0)"/>
<path d="M0 0 C2.08178672 1.19206045 4.05199262 2.43480512 5.7578125 4.140625 C6.0878125 2.820625 6.4178125 1.500625 6.7578125 0.140625 C11.0478125 0.140625 15.3378125 0.140625 19.7578125 0.140625 C19.85698018 7.39969943 19.92942405 14.65837606 19.97753906 21.91796875 C19.99760545 24.38548658 20.02486494 26.85295715 20.05957031 29.3203125 C20.10830556 32.87511893 20.13083189 36.42929444 20.1484375 39.984375 C20.16908264 41.08052124 20.18972778 42.17666748 20.21099854 43.30603027 C20.21285882 49.71260901 19.66373378 54.8816146 15.7578125 60.140625 C9.02887055 66.32335793 1.97694411 67.57269383 -6.98828125 67.37890625 C-15.15591542 66.78079619 -19.66558393 64.47411213 -25.02734375 58.2734375 C-26.484209 55.71572552 -26.47946383 54.03842527 -26.2421875 51.140625 C-24.13977147 51.00566249 -22.0348914 50.90865193 -19.9296875 50.828125 C-18.75792969 50.77011719 -17.58617187 50.71210937 -16.37890625 50.65234375 C-15.34378906 50.81347656 -14.30867187 50.97460938 -13.2421875 51.140625 C-11.44921875 53.59765625 -11.44921875 53.59765625 -10.2421875 56.140625 C-7.05058569 57.7364259 -3.71498718 57.51983876 -0.2421875 57.140625 C2.68580193 55.98650164 2.68580193 55.98650164 4.7578125 54.140625 C5.71851684 51.25851198 5.86363133 49.44212456 5.8203125 46.453125 C5.81128906 45.64488281 5.80226562 44.83664063 5.79296875 44.00390625 C5.78136719 43.38902344 5.76976562 42.77414063 5.7578125 42.140625 C4.9946875 42.78 4.2315625 43.419375 3.4453125 44.078125 C-1.86067175 48.15015942 -7.80753826 47.74074773 -14.2421875 47.140625 C-20.62486166 45.05833414 -24.00526304 40.52612218 -26.9921875 34.765625 C-29.4903601 27.5057422 -29.86381236 17.7440558 -26.7421875 10.640625 C-21.00956748 1.2506345 -10.81417488 -4.1448057 0 0 Z " fill="#F8F8F8" transform="translate(196.2421875,44.859375)"/>
<path d="M0 0 C4.95 0 9.9 0 15 0 C15.33 8.91 15.66 17.82 16 27 C18.5059375 24.2465625 18.5059375 24.2465625 21.0625 21.4375 C24.76888167 17.37771408 28.49173676 13.36858768 32.5 9.6015625 C34.07820699 8.04118455 34.07820699 8.04118455 35.125 6.0234375 C36.60804957 3.57445433 37.48750098 2.44307636 40 1 C45.94687258 0.11450967 52.02772741 0.60560464 58 1 C56.44668198 4.77443792 54.11220326 7.04916455 51.17578125 9.84375 C49.75749023 11.21853516 49.75749023 11.21853516 48.31054688 12.62109375 C46.80763173 14.06805322 45.30115832 15.51074818 43.78686523 16.94580078 C42.32234532 18.33798408 40.87378655 19.74689782 39.42578125 21.15625 C38.55348877 21.98962891 37.68119629 22.82300781 36.7824707 23.68164062 C34.78000288 25.78268844 34.78000288 25.78268844 35.05224609 28.04223633 C36.12063088 30.24918574 37.31437893 32.16923431 38.73828125 34.16796875 C39.5897876 35.37296021 39.5897876 35.37296021 40.45849609 36.60229492 C41.07031738 37.4554126 41.68213867 38.30853027 42.3125 39.1875 C42.93463379 40.06575439 43.55676758 40.94400879 44.19775391 41.84887695 C46.12632578 44.56988182 48.06264329 47.28524514 50 50 C51.76017713 52.47482496 53.5185766 54.95087643 55.27416992 57.42895508 C56.32755505 58.91513257 57.38363756 60.39940247 58.44262695 61.8815918 C62 66.88873915 62 66.88873915 62 68 C55.49855115 69.9001995 49.28388962 71.12196777 43 68 C34.97138089 59.73457774 29.45659296 49.06916393 24 39 C20.62119894 40.4480576 18.31778241 42.13030435 16 45 C15.36470352 47.59415665 15.36470352 47.59415665 15.390625 50.421875 C15.35839844 51.44667969 15.32617188 52.47148438 15.29296875 53.52734375 C15.27169922 55.12255859 15.27169922 55.12255859 15.25 56.75 C15.22035156 57.82894531 15.19070312 58.90789062 15.16015625 60.01953125 C15.08954329 62.67928595 15.04249764 65.33964754 15 68 C10.05 68 5.1 68 0 68 C0 45.56 0 23.12 0 0 Z " fill="#F9F9F9" transform="translate(23,26)"/>
<path d="M0 0 C4.95 0 9.9 0 15 0 C15.00410889 1.48846436 15.00821777 2.97692871 15.01245117 4.51049805 C15.03423393 10.03656574 15.08851601 15.56192057 15.15258789 21.08764648 C15.17577514 23.47852747 15.19016528 25.8695107 15.19555664 28.26049805 C15.20484038 31.6990537 15.24582168 35.13599944 15.29296875 38.57421875 C15.2890361 39.64210129 15.28510345 40.70998383 15.28105164 41.81022644 C15.37279535 47.9424379 15.37279535 47.9424379 18.41918945 53.15161133 C23.2199569 56.58994359 27.20639738 56.49761004 33 56 C37.26866002 54.49551911 37.26866002 54.49551911 40.13632202 51.20013428 C41.1255277 48.6802306 41.27703462 46.7517613 41.31884766 44.04785156 C41.33871735 43.06713684 41.35858704 42.08642212 41.37905884 41.07598877 C41.39638565 39.4992337 41.39638565 39.4992337 41.4140625 37.890625 C41.43342865 36.80867859 41.4527948 35.72673218 41.4727478 34.61199951 C41.53250237 31.15807974 41.57891297 27.70412656 41.625 24.25 C41.66318353 21.90753759 41.70223548 19.56508916 41.7421875 17.22265625 C41.83820073 11.48188447 41.92224744 5.74104697 42 0 C46.95 0 51.9 0 57 0 C57.09940099 6.79520475 57.17172033 13.58997962 57.21972656 20.38574219 C57.23975417 22.69408549 57.26698439 25.00237862 57.30175781 27.31054688 C57.35066594 30.64205357 57.37305811 33.97288538 57.390625 37.3046875 C57.41127014 38.32488983 57.43191528 39.34509216 57.45318604 40.39620972 C57.45559246 48.20401136 56.0580054 55.27305591 51 61.4375 C50.34 61.953125 49.68 62.46875 49 63 C48.34 63.53625 47.68 64.0725 47 64.625 C38.80748157 70.25735642 28.57574051 69.6948599 19 69 C15.63559941 68.11535516 12.92135446 66.86966686 10 65 C8.6078125 64.13375 8.6078125 64.13375 7.1875 63.25 C2.3974287 58.32306952 -0.13072383 51.89735927 -0.11352539 45.06958008 C-0.11344986 44.06876907 -0.11337433 43.06795807 -0.11329651 42.03681946 C-0.10813522 40.95861435 -0.10297394 39.88040924 -0.09765625 38.76953125 C-0.0962413 37.66397385 -0.09482635 36.55841644 -0.09336853 35.4193573 C-0.08776514 31.88371083 -0.07521204 28.34812738 -0.0625 24.8125 C-0.05748544 22.41731862 -0.05292246 20.02213625 -0.04882812 17.62695312 C-0.0377946 11.75127775 -0.02052767 5.87564957 0 0 Z " fill="#F8F8F8" transform="translate(23,120)"/>
<path d="M0 0 C4.89634025 3.06584841 8.58271209 7.76495155 10.65625 13.17578125 C12.55657421 21.97476142 11.55243126 30.74452257 6.87109375 38.453125 C3.61342052 43.42986195 0.06858371 45.66795891 -5.56640625 47.578125 C-13.90790292 49.3099786 -21.10549621 49.18237976 -28.6484375 44.94921875 C-34.17882108 40.92976308 -37.08606231 35.84828839 -38.87890625 29.328125 C-39.88951234 20.34968777 -39.31802095 12.74386033 -33.87890625 5.328125 C-25.02290528 -4.35497401 -11.75526469 -5.48192967 0 0 Z " fill="#FAFAFA" transform="translate(347.87890625,46.671875)"/>
<path d="M0 0 C6.60499423 3.92763519 11.13207305 9.75091545 13.41796875 17.08984375 C13.41796875 20.71984375 13.41796875 24.34984375 13.41796875 28.08984375 C2.19796875 28.08984375 -9.02203125 28.08984375 -20.58203125 28.08984375 C-19.47654319 35.64170877 -19.47654319 35.64170877 -16.39453125 38.08984375 C-11.55512655 39.81052098 -7.97978262 39.63341373 -3.20703125 37.77734375 C-0.30316248 36.29825313 -0.30316248 36.29825313 0.41796875 33.08984375 C4.37796875 33.08984375 8.33796875 33.08984375 12.41796875 33.08984375 C11.23004749 39.55741503 8.54588025 43.01489149 3.41796875 47.08984375 C-2.80354711 50.94718358 -9.40956191 50.97575445 -16.58203125 50.08984375 C-23.17741614 48.13833261 -27.48485727 44.82915691 -31.42578125 39.25 C-35.52078402 31.59953875 -36.19394807 22.47249455 -33.70703125 14.16796875 C-30.75493046 7.75880257 -26.65320756 3.12191621 -20.3203125 -0.0390625 C-14.17009876 -1.99554989 -6.13613898 -2.16296578 0 0 Z " fill="#F6F6F6" transform="translate(252.58203125,138.91015625)"/>
<path d="M0 0 C5.08545689 2.10432699 6.87024365 4.99516975 9.16638184 9.7434082 C10.5627339 13.52331217 10.49484193 17.10625792 10.390625 21.09375 C10.38496521 21.92588013 10.37930542 22.75801025 10.37347412 23.61535645 C10.35128184 26.2441841 10.30112133 28.87159217 10.25 31.5 C10.22991268 33.29425099 10.21166584 35.08852359 10.1953125 36.8828125 C10.15147383 41.25574602 10.08256939 45.62763328 10 50 C5.38 50 0.76 50 -4 50 C-4.0093457 48.96069336 -4.01869141 47.92138672 -4.02832031 46.85058594 C-4.06824123 42.98866162 -4.13400478 39.1275322 -4.20751953 35.26611328 C-4.23571718 33.59596989 -4.25693779 31.92569335 -4.27099609 30.25537109 C-4.29244337 27.85184628 -4.33909845 25.44992017 -4.390625 23.046875 C-4.39185364 22.30193787 -4.39308228 21.55700073 -4.39434814 20.78948975 C-4.49143649 17.34082038 -4.75045587 15.33902104 -6.81933594 12.52832031 C-10.021079 10.28437589 -12.18790042 10.45541435 -16 11 C-18.36497439 12.86708505 -19.66030715 14.32061431 -21 17 C-21.15626576 19.47832659 -21.25813198 21.93311331 -21.31640625 24.4140625 C-21.33718735 25.14370209 -21.35796844 25.87334167 -21.37937927 26.62509155 C-21.44481917 28.95829763 -21.50373368 31.29161721 -21.5625 33.625 C-21.60569053 35.20574095 -21.64930499 36.78647039 -21.69335938 38.3671875 C-21.80049481 42.24467504 -21.90177782 46.12227685 -22 50 C-26.62 50 -31.24 50 -36 50 C-36 33.83 -36 17.66 -36 1 C-31.71 1 -27.42 1 -23 1 C-22.67 2.65 -22.34 4.3 -22 6 C-21.58492187 5.566875 -21.16984375 5.13375 -20.7421875 4.6875 C-14.43817659 -1.00984877 -8.20846879 -1.13563767 0 0 Z " fill="#F3F3F3" transform="translate(127,138)"/>
<path d="M0 0 C4.61860067 5.8340219 5.14332625 10.38751443 5.09765625 17.60546875 C5.0962413 18.44467361 5.09482635 19.28387848 5.09336853 20.14851379 C5.08777215 22.82821216 5.07522035 25.5078269 5.0625 28.1875 C5.05748453 30.00455608 5.05292171 31.82161348 5.04882812 33.63867188 C5.03780391 38.09248013 5.02054178 42.54622589 5 47 C0.38 47 -4.24 47 -9 47 C-9.0093457 45.96069336 -9.01869141 44.92138672 -9.02832031 43.85058594 C-9.06824123 39.98866162 -9.13400478 36.1275322 -9.20751953 32.26611328 C-9.23571718 30.59596989 -9.25693779 28.92569335 -9.27099609 27.25537109 C-9.29244337 24.85184628 -9.33909845 22.44992017 -9.390625 20.046875 C-9.39185364 19.30193787 -9.39308228 18.55700073 -9.39434814 17.78948975 C-9.49146553 14.33978898 -9.75205678 12.33737846 -11.81933594 9.52441406 C-14.99658926 7.30332475 -17.21588974 7.52698622 -21 8 C-24.1850357 9.76015131 -24.83296972 10.49890916 -26 14 C-26.1529647 16.51054905 -26.25695178 18.99888525 -26.31640625 21.51171875 C-26.33718735 22.23994339 -26.35796844 22.96816803 -26.37937927 23.71846008 C-26.44468746 26.04137875 -26.50367237 28.36440906 -26.5625 30.6875 C-26.60570305 32.26368335 -26.64931792 33.83985548 -26.69335938 35.41601562 C-26.8003496 39.27722975 -26.90166961 43.13855603 -27 47 C-31.62 47 -36.24 47 -41 47 C-41 30.83 -41 14.66 -41 -2 C-36.71 -2 -32.42 -2 -28 -2 C-27.67 -0.35 -27.34 1.3 -27 3 C-25.63875 1.7934375 -25.63875 1.7934375 -24.25 0.5625 C-17.70107175 -5.24223186 -7.12171813 -4.27303088 0 0 Z " fill="#F3F3F3" transform="translate(406,47)"/>
<path d="M0 0 C4.62 0 9.24 0 14 0 C17.3 9.9 20.6 19.8 24 30 C26.05484481 26.91773278 27.01096153 24.30950277 28.1640625 20.80078125 C28.56367188 19.59228516 28.96328125 18.38378906 29.375 17.13867188 C29.79176459 15.86331325 30.20843 14.5879222 30.625 13.3125 C31.04906447 12.02525393 31.47353902 10.73814289 31.8984375 9.45117188 C32.93633069 6.30210959 33.96869018 3.15122446 35 0 C39.62 0 44.24 0 49 0 C47.01898092 6.80521319 44.82232761 13.46143754 42.34765625 20.1015625 C41.83554848 21.4835231 41.83554848 21.4835231 41.31309509 22.8934021 C40.59614962 24.82503567 39.87758861 26.75607032 39.1574707 28.68652344 C38.06351279 31.62228208 36.97778273 34.56099617 35.89257812 37.5 C35.19060029 39.38820535 34.48814256 41.27623238 33.78515625 43.1640625 C33.46523209 44.03197418 33.14530792 44.89988586 32.81568909 45.7940979 C26.90350208 61.56792372 26.90350208 61.56792372 20.5703125 65.16796875 C15.21838353 66.90043208 9.54914582 66.35071849 4 66 C4 62.37 4 58.74 4 55 C6.24609375 54.83723958 8.4921875 54.67447917 10.73828125 54.51171875 C13.49610295 53.88775564 14.44210133 53.3645776 16 51 C16.47651691 45.91636666 15.11992774 41.90518969 13.26171875 37.2578125 C12.98028519 36.53061005 12.69885162 35.80340759 12.40888977 35.0541687 C11.51115388 32.7406549 10.59968664 30.43284908 9.6875 28.125 C9.08565418 26.58239546 8.48473374 25.03942955 7.88476562 23.49609375 C6.77359521 20.639782 5.65635117 17.78599096 4.53393555 14.93408203 C4.02262271 13.62272174 3.51131087 12.31136106 3 11 C2.71540924 10.28326111 2.43081848 9.56652222 2.13760376 8.82806396 C0.94012763 5.75259704 0 3.3306939 0 0 Z " fill="#F9F9F9" transform="translate(417,139)"/>
<path d="M0 0 C4.99008978 2.2761813 7.39006202 5.23008987 10 10 C10.52047144 13.05227018 10.46819388 16.02831903 10.390625 19.1171875 C10.38496521 19.97434357 10.37930542 20.83149963 10.37347412 21.71463013 C10.35119639 24.4353368 10.30101774 27.15469568 10.25 29.875 C10.2299238 31.72654339 10.211675 33.57810756 10.1953125 35.4296875 C10.15136001 39.9536393 10.08239359 44.47659164 10 49 C5.71 49 1.42 49 -3 49 C-3.00410889 48.02651611 -3.00821777 47.05303223 -3.01245117 46.05004883 C-3.03428785 42.42467921 -3.08862216 38.80038798 -3.15258789 35.17553711 C-3.17572882 33.60923631 -3.19015448 32.04278078 -3.19555664 30.47631836 C-3.20487588 28.21891297 -3.24592233 25.96392779 -3.29296875 23.70703125 C-3.2890361 23.01100296 -3.28510345 22.31497467 -3.28105164 21.59785461 C-3.3954688 17.75169569 -3.92749069 16.09104858 -6.3527832 13.0456543 C-8.85599821 10.76358547 -8.85599821 10.76358547 -12.0625 10.5625 C-14.94439115 10.99171783 -16.67662171 11.25746628 -19 13 C-21.08624756 17.09681107 -21.30153259 20.7120697 -21.4140625 25.26953125 C-21.43342865 25.95053391 -21.4527948 26.63153656 -21.4727478 27.33317566 C-21.53218132 29.49282593 -21.578782 31.65253057 -21.625 33.8125 C-21.66321328 35.28322544 -21.70226694 36.75392929 -21.7421875 38.22460938 C-21.83785183 41.81620789 -21.92201575 45.40796913 -22 49 C-26.29 49 -30.58 49 -35 49 C-35 33.16 -35 17.32 -35 1 C-31.04 1 -27.08 1 -23 1 C-22.67 2.98 -22.34 4.96 -22 7 C-21.51789063 6.57847656 -21.03578125 6.15695313 -20.5390625 5.72265625 C-19.90742188 5.17480469 -19.27578125 4.62695312 -18.625 4.0625 C-17.68527344 3.24458984 -17.68527344 3.24458984 -16.7265625 2.41015625 C-12.0157147 -1.43739139 -5.77624598 -0.49952919 0 0 Z " fill="#FDFDFD" transform="translate(149,44)"/>
<path d="M0 0 C1.15338867 -0.03673828 1.15338867 -0.03673828 2.33007812 -0.07421875 C9.29159656 -0.10946694 14.60988962 1.86348219 19.625 6.75 C21.1875 9.375 21.1875 9.375 22.1875 15.375 C17.8975 15.375 13.6075 15.375 9.1875 15.375 C8.5275 14.055 7.8675 12.735 7.1875 11.375 C4.66274538 10.11262269 2.87549534 10.27643596 0.0625 10.3125 C-0.84757812 10.32152344 -1.75765625 10.33054688 -2.6953125 10.33984375 C-3.74332031 10.35724609 -3.74332031 10.35724609 -4.8125 10.375 C-5.1425 12.025 -5.4725 13.675 -5.8125 15.375 C-1.12653027 18.59945871 3.75612108 19.61104342 9.21679688 20.74804688 C15.17268687 22.09729589 19.68534575 24.12176862 23.1875 29.375 C23.9619173 35.21833053 23.68742039 40.47511145 20.1875 45.375 C12.65395557 51.68215348 3.62488816 52.17628767 -5.8125 51.375 C-11.05169076 50.33241856 -15.05174121 48.05256433 -18.69140625 44.13671875 C-20.68630516 41.00187761 -20.68613871 38.03947746 -20.8125 34.375 C-16.75733097 34.0306932 -12.85460448 33.83066326 -8.8125 34.375 C-6.1875 37.3125 -6.1875 37.3125 -4.8125 40.375 C-1.74820224 41.90714888 0.8040642 41.60438548 4.1875 41.375 C7.05896994 40.00502843 7.05896994 40.00502843 9.1875 38.375 C9.0799866 35.93091201 9.0799866 35.93091201 8.1875 33.375 C5.98013695 31.96010527 5.98013695 31.96010527 3.1875 31.1875 C2.19363281 30.86394531 1.19976562 30.54039062 0.17578125 30.20703125 C-2.41899211 29.48456494 -4.98359656 28.89248108 -7.625 28.375 C-13.04502204 27.27739697 -16.71887741 25.01543389 -19.8125 20.375 C-20.56332431 15.84117629 -20.83519034 11.3075085 -18.64453125 7.16796875 C-13.40158252 0.76591053 -7.91181687 0.01306658 0 0 Z " fill="#F8F8F8" transform="translate(329.8125,137.625)"/>
<path d="M0 0 C0.74918701 0.00684814 1.49837402 0.01369629 2.27026367 0.02075195 C9.38081758 0.22790066 13.759823 1.70668652 19 6.8125 C20.5625 9.4375 20.5625 9.4375 21.5625 15.4375 C17.2725 15.4375 12.9825 15.4375 8.5625 15.4375 C7.9025 14.1175 7.2425 12.7975 6.5625 11.4375 C4.03774538 10.17512269 2.25049534 10.33893596 -0.5625 10.375 C-1.47257812 10.38402344 -2.38265625 10.39304687 -3.3203125 10.40234375 C-4.36832031 10.41974609 -4.36832031 10.41974609 -5.4375 10.4375 C-5.7675 12.0875 -6.0975 13.7375 -6.4375 15.4375 C-1.75153027 18.66195871 3.13112108 19.67354342 8.59179688 20.81054688 C14.24564617 22.0913715 18.57108011 24.18912271 22.5 28.625 C24.06679143 32.77238907 23.64424002 36.18566074 22.5625 40.4375 C19.87515817 46.13466467 16.18292816 48.18702055 10.5625 50.4375 C3.43065042 52.81478319 -5.50403264 52.28571095 -12.49609375 49.54296875 C-16.57226557 47.22192926 -19.69537399 43.98546596 -21.0234375 39.42578125 C-21.3125 37.5 -21.3125 37.5 -21.4375 34.4375 C-19.50190687 34.30245862 -17.563628 34.20548871 -15.625 34.125 C-14.54605469 34.06699219 -13.46710938 34.00898437 -12.35546875 33.94921875 C-11.39253906 34.11035156 -10.42960938 34.27148438 -9.4375 34.4375 C-7.73828125 36.83203125 -7.73828125 36.83203125 -6.4375 39.4375 C-2.70894964 41.92320024 0.25360878 41.74094304 4.5625 41.4375 C6.91779281 41.02018982 6.91779281 41.02018982 8.5625 40.4375 C8.5625 38.4575 8.5625 36.4775 8.5625 34.4375 C3.71308562 31.67998986 -0.5167951 30.1017063 -6 29 C-11.67513862 27.8003772 -15.1057312 26.27702235 -19.4375 22.4375 C-21.42459286 18.46331427 -20.96850065 13.75874663 -20.4375 9.4375 C-18.44863229 4.97815535 -14.84078659 2.85389171 -10.41967773 1.04833984 C-6.96312289 -0.01685294 -3.59363768 -0.05025223 0 0 Z " fill="#F9F9F9" transform="translate(246.4375,43.5625)"/>
<path d="M0 0 C4.62 0 9.24 0 14 0 C15.28581414 3.93142775 16.56892158 7.86358166 17.84521484 11.7980957 C18.28015954 13.13617501 18.71667209 14.47374574 19.15478516 15.81079102 C19.78440139 17.73319069 20.40790843 19.65758784 21.03125 21.58203125 C21.40830078 22.73936768 21.78535156 23.8967041 22.17382812 25.08911133 C23 28 23 28 23 31 C23.66 31 24.32 31 25 31 C25.10441406 30.19433594 25.20882812 29.38867188 25.31640625 28.55859375 C26.14714717 24.2339939 27.49966402 20.21739774 28.9375 16.0625 C30.76256334 10.73828847 32.50415616 5.42695034 34 0 C38.29 0 42.58 0 47 0 C45.68863329 6.41894308 43.94416644 12.46373242 41.7421875 18.62890625 C41.43427277 19.50401352 41.12635803 20.37912079 40.80911255 21.28074646 C39.83592261 24.04307064 38.85559529 26.80279711 37.875 29.5625 C37.2091596 31.44839978 36.54379051 33.33446604 35.87890625 35.22070312 C34.25804319 39.81574344 32.63077929 44.40847009 31 49 C26.05 49 21.1 49 16 49 C13.71747951 42.34441914 11.43891696 35.68750186 9.1640625 29.02929688 C8.38911696 26.76297125 7.61307822 24.49701913 6.8359375 22.23144531 C5.72110105 18.980787 4.6101628 15.72881944 3.5 12.4765625 C3.15001953 11.45881744 2.80003906 10.44107239 2.43945312 9.39248657 C2.11912109 8.45166229 1.79878906 7.51083801 1.46875 6.54150391 C1.18451172 5.71099518 0.90027344 4.88048645 0.60742188 4.02481079 C0 2 0 2 0 0 Z " fill="#F9F9F9" transform="translate(167,139)"/>
<path d="M0 0 C5.13931807 3.58557075 8.38574569 7.72125234 9.6875 13.875 C10.48382406 21.04191652 9.46316284 26.69219937 5.6875 32.875 C2.487921 36.63450532 -0.48419513 39.43275597 -5.4609375 40.2109375 C-10.94038267 40.30706812 -14.01024526 39.57694013 -18.3125 35.875 C-23.71985301 30.01703424 -24.78427672 24.81001179 -24.62109375 17.015625 C-23.99965249 10.69108358 -22.16100715 4.94749894 -17.1875 0.75 C-11.76337612 -2.53946868 -5.80584043 -1.97179486 0 0 Z " fill="#040404" transform="translate(257.3125,238.125)"/>
<path d="M0 0 C4.62525103 2.47081814 7.88897757 6.01383328 10 10.8125 C12.09153146 17.84765129 11.65354977 25.09686503 9.125 31.953125 C6.86013852 36.07391464 3.16293371 38.91853314 -1 41 C-7.51823377 41.80980094 -11.73510608 40.92286213 -17 37 C-21.82224273 31.00477931 -23.49543886 25.18571287 -23.3125 17.59375 C-22.60779246 11.74467746 -20.37665819 6.85068311 -15.875 3 C-10.69631826 -0.60256121 -6.23441871 -1.00826179 0 0 Z " fill="#030303" transform="translate(99,237)"/>
<path d="M0 0 C4.45536023 3.15135236 6.86240589 6.67589086 8.5625 11.8125 C9.36762578 19.64843348 9.64504409 27.39733765 4.5625 33.8125 C0.85489143 37.57685768 -2.35016642 39.95253514 -7.6875 40.125 C-12.34732768 40.06516273 -14.84962726 38.89973934 -18.4375 35.8125 C-23.34924382 30.76431885 -24.51631121 25.37325279 -24.875 18.5 C-24.73426377 11.20182145 -21.83582476 5.77513647 -17.3125 0.1875 C-11.73601441 -2.47951485 -5.74604136 -1.98499611 0 0 Z " fill="#040404" transform="translate(203.4375,238.1875)"/>
<path d="M0 0 C4.29 0 8.58 0 13 0 C13 4.62 13 9.24 13 14 C16.3 14 19.6 14 23 14 C23 16.97 23 19.94 23 23 C19.7 23 16.4 23 13 23 C13.495 37.355 13.495 37.355 14 52 C16.97 52 19.94 52 23 52 C23 55.63 23 59.26 23 63 C20.43685501 63.08132187 17.87631582 63.14064175 15.3125 63.1875 C14.59126953 63.21263672 13.87003906 63.23777344 13.12695312 63.26367188 C8.54117728 63.32649072 5.57408001 62.95077107 2 60 C-0.49024932 56.36700596 -0.25772365 52.63007754 -0.1953125 48.390625 C-0.19106766 47.30041046 -0.19106766 47.30041046 -0.18673706 46.18817139 C-0.17557523 43.87527749 -0.15047851 41.56277612 -0.125 39.25 C-0.11496501 37.67839102 -0.10584006 36.10677596 -0.09765625 34.53515625 C-0.07564904 30.68995378 -0.04114715 26.84504336 0 23 C-2.64 23 -5.28 23 -8 23 C-8 20.03 -8 17.06 -8 14 C-5.36 14 -2.72 14 0 14 C0 9.38 0 4.76 0 0 Z " fill="#FCFCFC" transform="translate(281,31)"/>
<path d="M0 0 C4.29 0 8.58 0 13 0 C13 4.62 13 9.24 13 14 C16.3 14 19.6 14 23 14 C23 16.97 23 19.94 23 23 C19.7 23 16.4 23 13 23 C13.495 37.355 13.495 37.355 14 52 C16.97 52 19.94 52 23 52 C23 55.63 23 59.26 23 63 C20.77110504 63.05428973 18.54182529 63.09292338 16.3125 63.125 C15.07113281 63.14820313 13.82976562 63.17140625 12.55078125 63.1953125 C7.81369839 62.93474689 5.2718397 62.26040941 1.88110352 58.90014648 C-0.45874368 55.29274287 -0.51380039 52.44569184 -0.390625 48.29296875 C-0.38496521 47.56757401 -0.37930542 46.84217926 -0.37347412 46.09480286 C-0.35119099 43.79167992 -0.30101487 41.49014776 -0.25 39.1875 C-0.22992434 37.62046528 -0.21167543 36.05340601 -0.1953125 34.48632812 C-0.15135337 30.65694481 -0.08238623 26.82874154 0 23 C-2.64 23 -5.28 23 -8 23 C-8 20.03 -8 17.06 -8 14 C-5.36 14 -2.72 14 0 14 C0 9.38 0 4.76 0 0 Z " fill="#FCFCFC" transform="translate(389,125)"/>
<path d="M0 0 C1.98 0 3.96 0 6 0 C6 22.11 6 44.22 6 67 C4.35 67 2.7 67 1 67 C0.505 63.535 0.505 63.535 0 60 C-0.495 60.7425 -0.99 61.485 -1.5 62.25 C-6.0478185 67.25260035 -10.74807806 69.22537214 -17.5 69.5625 C-24.72728809 69.27220726 -28.78406133 66.16669558 -33.8125 61.25 C-38.87319003 53.73126053 -40.06289498 45.9703664 -39 37 C-37.03167809 29.73234986 -34.00534184 24.31661767 -28 19.6875 C-22.96182845 17.0329795 -17.52395413 17.26738009 -12 18 C-6.71400957 19.65503854 -4.3659951 21.51200653 -1 26 C-0.67 17.42 -0.34 8.84 0 0 Z M-29 28 C-33.56989205 35.14851453 -34.00856781 42.26377055 -32.5625 50.48828125 C-30.9786871 56.37808546 -28.0067342 59.62196247 -23 63 C-19.52629893 64.73685053 -15.79809188 64.46115112 -12 64 C-5.89257073 60.88866811 -2.14032568 56.4758572 0 50 C0.80749484 42.14100955 1.04429866 34.45995668 -4 28 C-9.07821113 23.16950649 -13.47300377 22.56928172 -20.2734375 22.66796875 C-24.53582625 23.18702755 -26.27638137 24.74494358 -29 28 Z " fill="#F5F5F5" transform="translate(212,214)"/>
<path d="M0 0 C0 3.96 0 7.92 0 12 C-1.381875 12.103125 -2.76375 12.20625 -4.1875 12.3125 C-8.15277063 12.77314368 -10.88577299 13.34374755 -14 16 C-16.58876138 20.35632043 -17.39609812 23.6698781 -17.51171875 28.7109375 C-17.54716797 29.95488281 -17.58261719 31.19882813 -17.61914062 32.48046875 C-17.65297852 34.40826172 -17.65297852 34.40826172 -17.6875 36.375 C-17.72166016 37.68339844 -17.75582031 38.99179688 -17.79101562 40.33984375 C-17.87327214 43.55959871 -17.93831821 46.77978518 -18 50 C-22.29 50 -26.58 50 -31 50 C-31 33.83 -31 17.66 -31 1 C-26.71 1 -22.42 1 -18 1 C-17.67 2.98 -17.34 4.96 -17 7 C-16.51789063 6.57847656 -16.03578125 6.15695313 -15.5390625 5.72265625 C-14.90742188 5.17480469 -14.27578125 4.62695312 -13.625 4.0625 C-12.68527344 3.24458984 -12.68527344 3.24458984 -11.7265625 2.41015625 C-7.92478099 -0.69491869 -4.75578891 -0.07670627 0 0 Z " fill="#FBFBFB" transform="translate(305,138)"/>
<path d="M0 0 C5.78458432 3.41565931 10.55003734 8.59046629 12.98046875 14.91796875 C15.04754353 23.74278801 13.99864881 33.2084989 9.48828125 41.0859375 C5.13460818 46.13038124 0.39303489 49.62275293 -6.34375 50.421875 C-14.82659671 50.53305255 -20.07778386 49.36378444 -26.26171875 43.4609375 C-31.89933963 35.81670579 -33.75225277 27.45323518 -32.51171875 18.0859375 C-30.4996588 10.80634983 -26.25485911 4.33816602 -19.74609375 0.421875 C-13.64975232 -2.09617907 -6.23456707 -2.26887822 0 0 Z M-22.76171875 10.4609375 C-26.66991841 16.32323699 -27.3206093 22.20025668 -26.51171875 29.0859375 C-24.78000915 35.86518702 -22.3696299 40.22220887 -16.51171875 44.0859375 C-12.44124528 45.44276199 -8.76780158 45.61066004 -4.51171875 45.0859375 C1.03147266 42.26204754 4.4667911 38.69073739 6.73828125 32.8984375 C8.21007484 25.41682006 8.58618192 17.80040312 4.48828125 11.0859375 C1.4872075 7.22426172 -1.39194854 4.52730608 -6.26953125 3.51171875 C-13.61784187 3.2213904 -17.69041162 5.10789109 -22.76171875 10.4609375 Z " fill="#F2F2F2" transform="translate(102.51171875,232.9140625)"/>
<path d="M0 0 C5.96114752 3.44936303 9.85035771 8.84134042 12.88671875 14.9140625 C14.81212066 24.92615241 13.5946243 33.19910597 8.44921875 41.9765625 C5.17929244 46.51812682 0.77334603 48.71650507 -4.48828125 50.1640625 C-11.58720429 51.15367055 -17.65356053 50.50171672 -23.48828125 46.1640625 C-29.10760951 41.11943827 -32.0917352 35.55911452 -32.76953125 28.046875 C-33.02981957 18.65480466 -31.4618957 11.67374923 -25.48828125 4.1640625 C-18.10691776 -1.40962014 -8.95726594 -3.00919138 0 0 Z M-22.48828125 9.1640625 C-26.68666347 15.97864728 -27.54928835 23.3147753 -26.48828125 31.1640625 C-24.72814443 37.14655002 -21.47483014 40.58675569 -16.48828125 44.1640625 C-12.96897229 45.92371698 -9.32922857 45.690891 -5.48828125 45.1640625 C-0.55984474 43.31697771 2.54617903 40.72412556 4.94921875 36.0390625 C7.72924887 29.63128008 8.71547148 23.53196525 6.828125 16.68359375 C4.69363266 11.39607538 2.21537266 8.36655027 -2.48828125 5.1640625 C-9.82476146 2.7185691 -17.25810124 3.01825416 -22.48828125 9.1640625 Z " fill="#F2F2F2" transform="translate(259.48828125,232.8359375)"/>
<path d="M0 0 C3.84287448 2.95605729 5.91525134 6.30825401 7.4375 10.875 C7.5228013 13.75194671 7.55335645 16.60400182 7.53515625 19.48046875 C7.5337413 20.31967361 7.53232635 21.15887848 7.53086853 22.02351379 C7.52527215 24.70321216 7.51272035 27.3828269 7.5 30.0625 C7.49498453 31.87955608 7.49042171 33.69661348 7.48632812 35.51367188 C7.47530391 39.96748013 7.45804178 44.42122589 7.4375 48.875 C5.4575 48.875 3.4775 48.875 1.4375 48.875 C1.42291748 47.85140381 1.40833496 46.82780762 1.39331055 45.77319336 C1.33503495 41.95042189 1.25780579 38.12822155 1.17504883 34.3059082 C1.1419364 32.6562634 1.11386244 31.00650904 1.09106445 29.35668945 C1.05726467 26.97560232 1.00493996 24.59550694 0.94921875 22.21484375 C0.94282883 21.48539047 0.9364389 20.75593719 0.92985535 20.00437927 C0.78740513 14.96535217 -0.17867466 11.34418913 -2.5625 6.875 C-7.02942447 3.89705036 -11.32468611 4.26142752 -16.5625 4.875 C-20.69211361 6.90358213 -22.98078224 8.57279843 -24.5625 12.875 C-24.79868702 15.65933032 -24.93457848 18.3535743 -24.9765625 21.140625 C-24.99592865 21.93402283 -25.0152948 22.72742065 -25.0352478 23.54486084 C-25.09488361 26.07146557 -25.14136443 28.59811625 -25.1875 31.125 C-25.22569455 32.84116537 -25.26474715 34.55731187 -25.3046875 36.2734375 C-25.40057186 40.47380456 -25.48466167 44.67426134 -25.5625 48.875 C-27.8725 48.875 -30.1825 48.875 -32.5625 48.875 C-32.5625 32.705 -32.5625 16.535 -32.5625 -0.125 C-30.5825 -0.125 -28.6025 -0.125 -26.5625 -0.125 C-26.2325 2.185 -25.9025 4.495 -25.5625 6.875 C-24.82 5.92625 -24.0775 4.9775 -23.3125 4 C-17.73722351 -3.12396441 -8.02766826 -2.53505313 0 0 Z " fill="#E9E9E9" transform="translate(313.5625,233.125)"/>
<path d="M0 0 C5.40033744 1.80011248 8.46071371 4.92142741 11 10 C11.08705146 12.98970289 11.11550145 15.95584955 11.09765625 18.9453125 C11.0962413 19.8303244 11.09482635 20.7153363 11.09336853 21.62716675 C11.0877614 24.45981191 11.07520771 27.29237864 11.0625 30.125 C11.05748592 32.04296761 11.05292285 33.96093646 11.04882812 35.87890625 C11.03778966 40.58596782 11.02052025 45.2929706 11 50 C9.02 50 7.04 50 5 50 C4.970271 48.3125769 4.970271 48.3125769 4.93994141 46.59106445 C4.86371845 42.40692219 4.77502694 38.22312013 4.68261719 34.03930664 C4.64439633 32.23045582 4.6095315 30.42153079 4.578125 28.61254883 C4.53232443 26.00835698 4.47435526 23.404673 4.4140625 20.80078125 C4.40251129 19.99538406 4.39096008 19.18998688 4.37905884 18.36018372 C4.27000475 14.18669552 4.03999465 10.75573656 2 7 C0.19667013 6.09251278 0.19667013 6.09251278 -2 6 C-2.85335937 5.90976563 -3.70671875 5.81953125 -4.5859375 5.7265625 C-10.97759726 5.41793116 -10.97759726 5.41793116 -16.5625 8.125 C-20.85256073 13.18507163 -21.3063466 18.36230002 -21.4140625 24.8046875 C-21.43342865 25.5286673 -21.4527948 26.25264709 -21.4727478 26.99856567 C-21.53209886 29.29059398 -21.57874878 31.58267374 -21.625 33.875 C-21.66322087 35.43752081 -21.70227494 37.00002148 -21.7421875 38.5625 C-21.83776308 42.37483465 -21.92195606 46.1872678 -22 50 C-23.98 50 -25.96 50 -28 50 C-28 33.83 -28 17.66 -28 1 C-26.02 1 -24.04 1 -22 1 C-21.67 2.65 -21.34 4.3 -21 6 C-20.57332031 5.566875 -20.14664063 5.13375 -19.70703125 4.6875 C-13.57384948 -0.77545778 -7.97702972 -1.04002995 0 0 Z " fill="#F3F3F3" transform="translate(153,232)"/>
<path d="M0 0 C2.31 0 4.62 0 7 0 C7 20.46 7 40.92 7 62 C19.54 62 32.08 62 45 62 C45 63.98 45 65.96 45 68 C30.15 68 15.3 68 0 68 C0 45.56 0 23.12 0 0 Z " fill="#E3E3E3" transform="translate(23,214)"/>
<path d="M0 0 C4.62 0 9.24 0 14 0 C14 16.17 14 32.34 14 49 C9.38 49 4.76 49 0 49 C0 32.83 0 16.66 0 0 Z " fill="#F1F1F1" transform="translate(361,139)"/>
<path d="M0 0 C4.62 0 9.24 0 14 0 C14 16.17 14 32.34 14 49 C9.38 49 4.76 49 0 49 C0 32.83 0 16.66 0 0 Z " fill="#F1F1F1" transform="translate(147,139)"/>
<path d="M0 0 C4.29 0 8.58 0 13 0 C13 16.17 13 32.34 13 49 C8.71 49 4.42 49 0 49 C0 32.83 0 16.66 0 0 Z " fill="#FCFCFC" transform="translate(90,45)"/>
<path d="M0 0 C0.76183594 -0.00515625 1.52367187 -0.0103125 2.30859375 -0.015625 C4.82772654 0.2812572 6.41494034 0.91353583 8.5625 2.25 C12.78152716 8.18789008 13.20330898 14.13364761 12.5625 21.25 C11.16542701 24.90900069 9.65842259 27.79906128 6.5625 30.25 C2.90961807 31.46762731 0.40495864 31.64075851 -3.4375 31.25 C-7.74828439 28.40325559 -9.88699543 26.12807146 -11.4375 21.25 C-12.30300929 13.86297885 -11.99120282 8.23486657 -7.4375 2.25 C-4.32763793 0.17675862 -3.54641613 -0.02392186 0 0 Z " fill="#070707" transform="translate(333.4375,53.75)"/>
<path d="M0 0 C2.94618065 0.87589155 3.76997468 1.68364419 5.58203125 4.17578125 C7.25861001 7.51508274 7.40107794 9.77954658 7.375 13.5 C7.38273437 14.6034375 7.39046875 15.706875 7.3984375 16.84375 C6.8595147 21.11286396 5.20776231 23.70277381 2.3125 26.8125 C-1.10218071 28.56598469 -4.30069065 28.77957613 -8 28 C-12.14405718 24.93700122 -13.92076349 22.0037329 -15 17 C-15.61554086 10.53682095 -14.7236807 7.31954386 -11 2 C-7.27624573 -0.48250285 -4.30855244 -0.40992301 0 0 Z " fill="#050505" transform="translate(196,54)"/>
<path d="M0 0 C2.43617749 0.41401943 4.09656466 1.04945699 6.18359375 2.37109375 C9.18359375 7.51395089 9.18359375 7.51395089 9.18359375 10.37109375 C1.92359375 10.37109375 -5.33640625 10.37109375 -12.81640625 10.37109375 C-11.2048225 2.31317498 -7.91437252 -0.23317909 0 0 Z " fill="#060606" transform="translate(243.81640625,147.62890625)"/>
<path d="M0 0 C4.62 0 9.24 0 14 0 C14 3.96 14 7.92 14 12 C9.38 12 4.76 12 0 12 C0 8.04 0 4.08 0 0 Z " fill="#DFDFDF" transform="translate(361,120)"/>
<path d="M0 0 C4.62 0 9.24 0 14 0 C14 3.96 14 7.92 14 12 C9.38 12 4.76 12 0 12 C0 8.04 0 4.08 0 0 Z " fill="#DFDFDF" transform="translate(147,120)"/>
<path d="M0 0 C4.29 0 8.58 0 13 0 C13 3.3 13 6.6 13 10 C8.71 10 4.42 10 0 10 C0 6.7 0 3.4 0 0 Z " fill="#FFFFFF" transform="translate(90,27)"/>
</svg>
